<?xml version="1.0" encoding="utf-8"?>
<!-- Generator: Adobe Illustrator 27.9.0, SVG Export Plug-In . SVG Version: 6.00 Build 0)  -->
<svg version="1.1" id="uuid-cb9d1484-88ec-4764-b787-08d67b0319c1"
	 xmlns="http://www.w3.org/2000/svg" xmlns:xlink="http://www.w3.org/1999/xlink" x="0px" y="0px" viewBox="0 0 50.1 50.1"
	 style="enable-background:new 0 0 50.1 50.1;" xml:space="preserve">
<style type="text/css">
	.st0{fill:#181818;}
	.st1{fill:#E6E6E6;}
</style>
<path class="st0" d="M2,50h46c1.1,0,2-0.9,2-2V2c0-1.1-0.9-2-2-2H2C0.9,0,0,0.9,0,2v46C0,49.2,0.9,50,2,50z"/>
<g id="uuid-38515a70-f5c3-4c6a-b07c-7bcca62fefb2">
	<g>
		<path class="st1" d="M36.6,17.3l6.1-6.1c6.9,8.8,6.4,21.7-1.8,29.8c-8.2,8.2-21,8.7-29.8,1.8l6.1-6.1c5.4,3.7,12.8,3.1,17.6-1.7
			C39.7,30.1,40.3,22.7,36.6,17.3C36.6,17.3,36.6,17.3,36.6,17.3z"/>
		<path class="st1" d="M17.3,36.6c-0.7-0.5-1.4-1.1-2.1-1.7s-1.2-1.4-1.7-2.1l6.4-6.4l3.8,3.8C23.7,30.2,17.3,36.6,17.3,36.6z"/>
		<path class="st1" d="M32.8,13.5c0.7,0.5,1.4,1.1,2.1,1.7s1.2,1.4,1.7,2.1l-6.4,6.4l-3.8-3.8C26.4,19.9,32.8,13.5,32.8,13.5z"/>
		<path class="st1" d="M9.2,9.2C17.3,1,30.1,0.4,39,7.4l-6.1,6.1c-5.4-3.7-12.8-3.1-17.6,1.7s-5.4,12.2-1.7,17.6L7.4,39
			C0.4,30.1,1,17.3,9.2,9.2z"/>
	</g>
</g>
</svg>
