<?xml version="1.0" encoding="utf-8"?>
<!-- Generator: Adobe Illustrator 25.3.1, SVG Export Plug-In . SVG Version: 6.00 Build 0)  -->
<svg version="1.1" id="Layer_1" xmlns="http://www.w3.org/2000/svg" xmlns:xlink="http://www.w3.org/1999/xlink" x="0px" y="0px"
	 viewBox="0 0 24 24" style="enable-background:new 0 0 24 24;" xml:space="preserve">
<style type="text/css">
	.st0{display:none;}
	.st1{display:inline;}
</style>
<g id="Facebook_1_" class="st0">
	<g class="st1">
		<g>
			<path d="M13.64,23.95c-0.01-0.08-0.02-0.15-0.02-0.23c0-3.49,0-6.98,0-10.47v-0.28h0.3c1.42,0,2.85,0,4.27,0
				c0.21,0,0.28-0.05,0.28-0.27c-0.01-1.45-0.01-2.89-0.01-4.34c0-0.07-0.01-0.15-0.01-0.25h-4.8c0-0.76-0.04-1.5,0.01-2.23
				c0.03-0.51,0.42-1.03,1.14-1c1.14,0.04,2.27,0.01,3.41,0.01c0.2,0,0.26-0.06,0.26-0.26c-0.01-1.45,0-2.89,0-4.34
				c0-0.08-0.01-0.15-0.01-0.25h-0.26c-1.17,0-2.34,0-3.51,0c-1.37,0-2.55,0.49-3.54,1.42c-1.01,0.94-1.65,2.1-1.9,3.45
				c-0.12,0.69-0.11,1.4-0.15,2.1c-0.02,0.36,0,0.72,0,1.12H5.55C5.54,8.22,5.53,8.27,5.53,8.32c0,1.48,0,2.96,0,4.43
				c0,0.2,0.08,0.23,0.25,0.23c1.01-0.01,2.01,0,3.02,0h0.3v10.98H13.64z"/>
		</g>
	</g>
</g>
<g id="eMail_1_" class="st0">
	<g class="st1">
		<g>
			<path d="M23.92,5.28c-0.29-1.08-0.99-1.77-2.06-2.06l-0.05-0.01H2.2L2.14,3.22c-1.08,0.3-1.77,0.99-2.06,2.06L0.06,5.34v13.32
				l0.01,0.05c0.29,1.08,0.98,1.77,2.06,2.06l0.06,0.02h19.62l0.06-0.02c1.07-0.29,1.76-0.99,2.05-2.06l0.01-0.05V5.33L23.92,5.28z
				 M20.74,5.15c-2.74,2.74-5.48,5.47-8.22,8.21c-0.13,0.13-0.33,0.3-0.54,0.3c-0.13,0-0.29-0.08-0.44-0.25
				C9.09,10.98,6.6,8.5,4.2,6.09L3.26,5.15H20.74z M1.99,6.76l5.23,5.29l-5.23,5.29V6.76z M3.51,18.81l5.36-5.41
				c0.05,0.05,0.1,0.08,0.13,0.13c0.36,0.38,0.73,0.76,1.11,1.16c0.57,0.57,1.23,0.87,1.89,0.87s1.31-0.3,1.88-0.86
				c0.38-0.38,0.74-0.76,1.12-1.16c0.07-0.07,0.14-0.15,0.21-0.23l5.42,5.49H3.51z M21.99,17.31l-5.27-5.32l5.27-5.31V17.31z"/>
		</g>
	</g>
</g>
<g id="Instagram_Icon_1_" class="st0">
	<g class="st1">
		<g>
			<path d="M0.12,6.58c0.12-3.65,2.77-6.31,6.42-6.4c3.14-0.08,6.28-0.11,9.41-0.09c1.11,0.01,2.25,0.13,3.31,0.43
				c2.58,0.72,4.04,2.54,4.46,5.15c0.17,1.04,0.22,2.12,0.22,3.18c0,2.89-0.01,5.77-0.1,8.66c-0.11,3.64-2.78,6.3-6.42,6.4
				c-3.14,0.08-11.84-0.08-12.97-0.43c-2.45-0.76-3.88-2.56-4.19-5.06C-0.01,16.31,0.06,8.4,0.12,6.58 M2.1,11.99
				c0.06,1.91,0.08,3.82,0.19,5.73c0.13,2.07,1.42,3.54,3.48,3.9c1.06,0.19,2.15,0.22,3.23,0.22c2.89,0,5.77-0.02,8.66-0.12
				c1.28-0.05,2.39-0.61,3.18-1.69c0.69-0.95,0.9-2.05,0.91-3.17c0.03-3.21,0.03-6.43,0-9.64c-0.01-1.1-0.22-2.19-0.88-3.12
				c-0.96-1.35-2.38-1.81-3.91-1.82C13.4,2.25,9.85,2.26,6.3,2.36c-2.23,0.07-3.86,1.75-4,4C2.17,8.23,2.16,10.11,2.1,11.99"/>
			<path d="M5.85,12.03c-0.01-3.4,2.68-6.11,6.08-6.12c3.46-0.01,6.17,2.68,6.18,6.14c0.01,3.41-2.72,6.13-6.14,6.13
				C8.54,18.17,5.85,15.47,5.85,12.03 M7.96,11.97c0,2.27,1.81,4.1,4.03,4.08c2.17-0.02,3.97-1.8,4-3.95
				c0.03-2.24-1.82-4.1-4.03-4.08C9.78,8.05,7.96,9.85,7.96,11.97"/>
			<path d="M18.39,7.05c-0.8,0-1.42-0.59-1.43-1.39c-0.02-0.79,0.63-1.46,1.42-1.47c0.77,0,1.46,0.69,1.44,1.46
				C19.81,6.42,19.17,7.04,18.39,7.05"/>
		</g>
	</g>
</g>
<g id="Behance_1_">
	<g>
		<g>
			<path d="M0.06,19.42V4.57h0.21c2.28,0,4.57,0,6.85,0c0.76,0,1.51,0.08,2.23,0.35c1.2,0.44,2.02,1.25,2.29,2.53
				c0.21,0.98,0.17,1.95-0.35,2.84c-0.26,0.44-0.64,0.75-1.07,1c-0.08,0.05-0.16,0.09-0.25,0.14c0.25,0.13,0.49,0.25,0.72,0.38
				c0.74,0.45,1.21,1.12,1.4,1.95c0.39,1.68,0.03,3.17-1.21,4.41c-0.63,0.63-1.42,0.98-2.29,1.09c-0.63,0.08-1.27,0.14-1.91,0.15
				c-2.13,0.02-4.27,0.01-6.4,0.01C0.21,19.43,0.15,19.42,0.06,19.42 M3.5,16.85c0.87,0,1.71,0,2.55,0c0.42,0,0.85-0.01,1.27-0.05
				c0.5-0.05,0.97-0.2,1.32-0.6c0.46-0.54,0.53-1.19,0.43-1.86c-0.08-0.59-0.42-0.99-0.97-1.22c-0.46-0.19-0.95-0.22-1.44-0.23
				c-0.99-0.01-1.98,0-2.97,0c-0.06,0-0.12,0.01-0.18,0.01V16.85z M3.5,10.41c0.06,0,0.11,0.01,0.16,0.01c0.98,0,1.96,0.01,2.94,0
				c0.27,0,0.54-0.02,0.8-0.07c0.65-0.13,1.22-0.39,1.36-1.13c0.07-0.38,0.08-0.77-0.06-1.14c-0.13-0.35-0.37-0.6-0.73-0.71
				C7.65,7.29,7.34,7.2,7.02,7.2C5.86,7.16,4.7,7.16,3.54,7.15c-0.01,0-0.02,0.01-0.04,0.02V10.41z"/>
			<path d="M23.78,15.86c-0.07,0.58-0.32,1.04-0.64,1.46c-0.64,0.85-1.45,1.47-2.48,1.74c-2.03,0.54-3.93,0.3-5.62-1.03
				c-0.82-0.64-1.27-1.53-1.47-2.53c-0.28-1.4-0.28-2.81,0.19-4.17c0.57-1.66,1.74-2.72,3.45-3.12c1.52-0.35,3-0.22,4.38,0.55
				c0.79,0.45,1.34,1.13,1.75,1.93c0.43,0.82,0.56,1.72,0.59,2.63c0.01,0.36,0,0.72,0,1.1h-7.72c-0.02,1.18,0.51,2.06,1.44,2.43
				c0.75,0.3,1.51,0.32,2.27,0.01c0.39-0.16,0.7-0.43,0.9-0.8c0.08-0.15,0.19-0.2,0.36-0.2c0.79,0.01,1.58,0,2.37,0H23.78z
				 M16.28,12.58h4.76c-0.03-1.33-0.98-2.23-2.36-2.24C17.24,10.32,16.46,11.21,16.28,12.58"/>
			<rect x="15.65" y="5.2" width="5.96" height="1.46"/>
		</g>
	</g>
</g>
</svg>
